<svg xmlns="http://www.w3.org/2000/svg" width="1200" height="630" viewBox="0 0 1200 630" role="img" aria-labelledby="title desc">
  <title id="title">SURGE — EV charging in Karnataka</title>
  <desc id="desc">SURGE voltage-yellow electric vehicle charging infrastructure for Karnataka.</desc>
  <rect width="1200" height="630" fill="#14161A"/>
  <g opacity=".32" stroke="#2A2D35" stroke-width="1">
    <path d="M0 90H1200M0 180H1200M0 270H1200M0 360H1200M0 450H1200M0 540H1200"/>
    <path d="M90 0V630M180 0V630M270 0V630M360 0V630M450 0V630M540 0V630M630 0V630M720 0V630M810 0V630M900 0V630M990 0V630M1080 0V630M1170 0V630"/>
  </g>
  <path d="M0 410H170L205 170L240 470L275 300L310 410H470L505 225L540 445L575 410H760L795 135L830 480L865 410H1030L1065 260L1100 410H1200" fill="none" stroke="#FF5A1F" stroke-width="8" stroke-linecap="square"/>
  <path d="M0 410H1200" stroke="#FFC530" stroke-width="2" stroke-dasharray="8 16" opacity=".72"/>
  <circle cx="205" cy="170" r="14" fill="#FFC530"/><circle cx="505" cy="225" r="14" fill="#FFC530"/><circle cx="795" cy="135" r="14" fill="#FFC530"/>
  <text x="72" y="112" fill="#FFC530" font-family="Arial, sans-serif" font-size="24" font-weight="700" letter-spacing="6">KARNATAKA / LIVE NETWORK</text>
  <text x="68" y="548" fill="#F0F0EA" font-family="Arial, sans-serif" font-size="96" font-weight="900" letter-spacing="-4">SURGE.</text>
  <text x="930" y="548" fill="#FFC530" font-family="Arial, sans-serif" font-size="30" font-weight="700" text-anchor="end">180kW DC FAST CHARGING</text>
</svg>
